<svg width="14" height="14" viewBox="0 0 14 14" fill="none" xmlns="http://www.w3.org/2000/svg">
<path d="M0.291986 0.292017C0.384878 0.19889 0.495229 0.125005 0.616719 0.0745916C0.738209 0.0241787 0.868452 -0.00177002 0.999987 -0.00177002C1.13152 -0.00177002 1.26176 0.0241787 1.38325 0.0745916C1.50474 0.125005 1.6151 0.19889 1.70799 0.292017L6.99999 5.58602L12.292 0.292017C12.385 0.199041 12.4953 0.125288 12.6168 0.0749702C12.7383 0.0246521 12.8685 -0.00124645 13 -0.00124645C13.1315 -0.00124645 13.2617 0.0246521 13.3832 0.0749702C13.5046 0.125288 13.615 0.199041 13.708 0.292017C13.801 0.384993 13.8747 0.495371 13.925 0.61685C13.9754 0.738329 14.0012 0.868529 14.0012 1.00002C14.0012 1.1315 13.9754 1.26171 13.925 1.38318C13.8747 1.50466 13.801 1.61504 13.708 1.70802L8.41399 7.00002L13.708 12.292C13.801 12.385 13.8747 12.4954 13.925 12.6168C13.9754 12.7383 14.0012 12.8685 14.0012 13C14.0012 13.1315 13.9754 13.2617 13.925 13.3832C13.8747 13.5047 13.801 13.615 13.708 13.708C13.615 13.801 13.5046 13.8747 13.3832 13.9251C13.2617 13.9754 13.1315 14.0013 13 14.0013C12.8685 14.0013 12.7383 13.9754 12.6168 13.9251C12.4953 13.8747 12.385 13.801 12.292 13.708L6.99999 8.41402L1.70799 13.708C1.61501 13.801 1.50463 13.8747 1.38315 13.9251C1.26168 13.9754 1.13147 14.0013 0.999987 14.0013C0.868499 14.0013 0.738298 13.9754 0.616819 13.9251C0.49534 13.8747 0.384962 13.801 0.291986 13.708C0.199011 13.615 0.125258 13.5047 0.0749397 13.3832C0.0246215 13.2617 -0.00127697 13.1315 -0.00127697 13C-0.00127697 12.8685 0.0246215 12.7383 0.0749397 12.6168C0.125258 12.4954 0.199011 12.385 0.291986 12.292L5.58599 7.00002L0.291986 1.70802C0.19886 1.61513 0.124974 1.50477 0.0745611 1.38328C0.0241482 1.26179 -0.00180054 1.13155 -0.00180054 1.00002C-0.00180054 0.868483 0.0241482 0.73824 0.0745611 0.61675C0.124974 0.495259 0.19886 0.384908 0.291986 0.292017Z" fill="white"/>
</svg>
