<svg width="64" height="16" viewBox="0 0 64 16" fill="none" xmlns="http://www.w3.org/2000/svg">
<g id="Vector">
<path d="M0.026062 12.1738L4.74314 0H4.89776L8.31952 5.12075L11.7994 0H11.954L16.671 12.1738L12.2634 13.5652L10.6781 8.46372L8.31952 11.6715L5.88368 8.46372L4.33719 13.5652L0.026062 12.1738Z" fill="white"/>
<path d="M20.8662 9.10147C21.0016 9.39133 21.2335 9.62315 21.5429 9.7971C21.8329 9.97104 22.2002 10.0676 22.6256 10.0676C22.9929 10.0676 23.3601 9.95164 23.7274 9.71966C24.0755 9.48784 24.3268 9.19782 24.5007 8.86949L26.7238 10.57C26.2212 11.4202 25.622 12.0385 24.9259 12.4058C24.2299 12.7729 23.3986 12.9663 22.4127 12.9663C21.6587 12.9663 21.0014 12.8504 20.4021 12.6378C19.8028 12.4252 19.2615 12.116 18.8168 11.7103C18.2947 11.2659 17.9082 10.6862 17.6374 10.0098C17.3474 9.33362 17.2121 8.56056 17.2121 7.71039C17.2121 6.95689 17.328 6.2805 17.5793 5.66215C17.8307 5.0438 18.1593 4.50273 18.6039 4.05832C19.0872 3.53664 19.6866 3.15011 20.4019 2.86026C21.0978 2.5704 21.8518 2.43509 22.6831 2.45449C23.1277 2.45449 23.5723 2.51253 24.0171 2.60904C24.4617 2.70571 24.8676 2.87949 25.2349 3.09208C25.6603 3.3433 26.0082 3.69119 26.2789 4.1162C26.5497 4.54136 26.6849 5.04364 26.7043 5.62335C26.7043 6.16443 26.5883 6.62823 26.3562 7.034C26.1243 7.43977 25.8149 7.7875 25.4476 8.05812C25.119 8.30934 24.7323 8.50252 24.3263 8.63783C23.901 8.79238 23.4756 8.90829 23.0504 8.96632C22.6831 9.02436 22.3158 9.063 21.9485 9.063C21.5812 9.063 21.2335 9.08207 20.8662 9.10147ZM20.557 7.18838C20.6924 7.18838 20.8856 7.16898 21.1756 7.14975C21.4462 7.13035 21.7169 7.07247 22.0069 6.9758C22.2969 6.89853 22.5482 6.78262 22.7609 6.62791C22.9736 6.4926 23.109 6.28001 23.1282 6.02896C23.1476 5.77774 23.0703 5.58455 22.8963 5.48788C22.7223 5.39137 22.5096 5.33333 22.2777 5.33333C21.7944 5.35273 21.3885 5.52668 21.0404 5.87441C20.8858 6.04836 20.7698 6.26094 20.6731 6.512C20.5766 6.76322 20.5376 6.99504 20.557 7.18838Z" fill="white"/>
<path d="M32.9876 5.37197C32.6009 5.37197 32.2722 5.48788 32.0209 5.7391C31.7503 5.99032 31.5569 6.24154 31.4603 6.512V12.7922H27.884V2.68598H31.3444L31.4023 3.51692C31.5376 3.36237 31.6923 3.22706 31.8663 3.09175C32.0403 2.97584 32.2143 2.87917 32.3884 2.78266C32.6397 2.66675 32.9104 2.57007 33.2197 2.5122C33.5289 2.45416 33.8383 2.43493 34.1475 2.43493C34.5921 2.43493 35.0561 2.5122 35.5007 2.64751C35.9453 2.78282 36.3126 2.9954 36.622 3.26586C37.028 3.63299 37.318 4.11603 37.492 4.69575C37.666 5.27546 37.7433 5.95185 37.7433 6.72474V12.7923H34.1862V8.00008C34.1862 7.71022 34.1862 7.36233 34.1668 6.95656C34.1475 6.5508 34.0702 6.2029 33.9348 5.91305C33.8383 5.7391 33.7222 5.60395 33.5868 5.50728C33.4322 5.41061 33.2387 5.37197 32.9876 5.37197Z" fill="white"/>
<path d="M39.0191 6.2223V3.45904H40.295V0.61835H43.8713V3.45904H46.6552V6.2223H43.8713V7.88417C43.8713 8.13539 43.8713 8.38661 43.8907 8.67647C43.8907 8.96632 43.9294 9.21754 44.0261 9.41073C44.0842 9.58467 44.2001 9.71982 44.3742 9.81649C44.5288 9.91317 44.7609 9.97104 45.0509 9.97104C45.2249 9.97104 45.4376 9.91317 45.6889 9.81649C45.9402 9.71999 46.1142 9.58467 46.2302 9.44936L47.0034 11.8649C46.5588 12.1934 46.0756 12.4252 45.5728 12.5992C45.0701 12.7731 44.5288 12.8696 43.9488 12.8504C43.195 12.8504 42.5762 12.7343 42.0929 12.5025C41.6097 12.2707 41.223 11.9614 40.9524 11.5556C40.6624 11.1112 40.4884 10.5894 40.4111 9.99044C40.3338 9.39133 40.2951 8.75374 40.2951 8.05812V6.2223H39.0191Z" fill="white"/>
<path d="M51.6817 0.61835V12.7922H48.1053V0.61835H51.6817Z" fill="white"/>
<path d="M63.7836 3.61359L57.636 16L54.5235 14.3575L56.36 10.9179L52.4355 3.67147L55.9154 2.14491L58.2933 7.34293L60.4392 2.18354L63.7836 3.61359Z" fill="white"/>
</g>
</svg>
