<svg width="20" height="20" viewBox="0 0 20 20" fill="none" xmlns="http://www.w3.org/2000/svg">
<path d="M5 10.5C4.86739 10.5 4.74021 10.4473 4.64645 10.3536C4.55268 10.2598 4.5 10.1326 4.5 10C4.5 9.86739 4.55268 9.74021 4.64645 9.64645C4.74021 9.55268 4.86739 9.5 5 9.5H15C15.1326 9.5 15.2598 9.55268 15.3536 9.64645C15.4473 9.74021 15.5 9.86739 15.5 10C15.5 10.1326 15.4473 10.2598 15.3536 10.3536C15.2598 10.4473 15.1326 10.5 15 10.5H5Z" fill="white"/>
<path d="M9.5 5C9.5 4.86739 9.55268 4.74021 9.64645 4.64645C9.74021 4.55268 9.86739 4.5 10 4.5C10.1326 4.5 10.2598 4.55268 10.3536 4.64645C10.4473 4.74021 10.5 4.86739 10.5 5V15C10.5 15.1326 10.4473 15.2598 10.3536 15.3536C10.2598 15.4473 10.1326 15.5 10 15.5C9.86739 15.5 9.74021 15.4473 9.64645 15.3536C9.55268 15.2598 9.5 15.1326 9.5 15V5Z" fill="white"/>
</svg>
