<svg width="20" height="20" viewBox="0 0 20 20" fill="none" xmlns="http://www.w3.org/2000/svg">
<path d="M15 15.7167H14.3667C13.7 15.7167 13.0667 15.975 12.6 16.4416L11.175 17.85C10.525 18.4917 9.46668 18.4917 8.81668 17.85L7.39166 16.4416C6.925 15.975 6.28333 15.7167 5.625 15.7167H5C3.61667 15.7167 2.5 14.6083 2.5 13.2417V4.14998C2.5 2.78332 3.61667 1.67501 5 1.67501H15C16.3833 1.67501 17.5 2.78332 17.5 4.14998V13.2417C17.5 14.6 16.3833 15.7167 15 15.7167Z" stroke="white" stroke-width="1.5" stroke-miterlimit="10" stroke-linecap="round" stroke-linejoin="round"/>
<path d="M10 8.33333C11.0724 8.33333 11.9417 7.46401 11.9417 6.39165C11.9417 5.3193 11.0724 4.45002 10 4.45002C8.92768 4.45002 8.05835 5.3193 8.05835 6.39165C8.05835 7.46401 8.92768 8.33333 10 8.33333Z" stroke="white" stroke-width="1.5" stroke-linecap="round" stroke-linejoin="round"/>
<path d="M13.3334 13.05C13.3334 11.55 11.8417 10.3334 10 10.3334C8.15835 10.3334 6.66669 11.55 6.66669 13.05" stroke="white" stroke-width="1.5" stroke-linecap="round" stroke-linejoin="round"/>
</svg>
